<?xml version="1.0" standalone="no"?>
<!DOCTYPE svg PUBLIC "-//W3C//DTD SVG 20010904//EN"
 "http://www.w3.org/TR/2001/REC-SVG-20010904/DTD/svg10.dtd">
<svg version="1.0" xmlns="http://www.w3.org/2000/svg"
 width="260.000000pt" height="260.000000pt" viewBox="0 0 260.000000 260.000000"
 preserveAspectRatio="xMidYMid meet">
<metadata>
Created by potrace 1.11, written by Peter Selinger 2001-2013
</metadata>
<g transform="translate(0.000000,260.000000) scale(0.100000,-0.100000)"
fill="#000000" stroke="none">
<path d="M960 2350 c-20 -11 -55 -19 -82 -20 -26 0 -50 -4 -53 -10 -3 -5 -17
-10 -29 -10 -31 0 -76 -21 -161 -75 -38 -24 -75 -44 -80 -45 -6 0 -16 -9 -23
-20 -6 -11 -27 -26 -45 -34 -22 -9 -39 -28 -56 -62 -13 -27 -30 -62 -37 -77
-8 -16 -14 -39 -14 -52 0 -12 -6 -28 -14 -34 -8 -7 -17 -33 -20 -59 -15 -116
-25 -182 -35 -242 -6 -36 -15 -89 -19 -118 -5 -29 -14 -58 -20 -64 -7 -7 -12
-26 -12 -43 0 -47 -27 -66 -81 -59 -50 7 -66 -4 -118 -80 -52 -75 -39 -146 42
-233 26 -28 29 -36 22 -69 -8 -45 13 -193 31 -214 7 -8 23 -45 36 -81 22 -60
102 -175 154 -221 27 -24 217 -112 294 -136 59 -19 107 -29 225 -48 107 -17
259 -1 482 51 105 24 133 35 179 70 47 36 151 145 177 187 38 61 57 100 57
118 0 10 7 25 15 34 25 25 35 64 35 144 0 89 12 117 60 150 47 31 59 57 60
123 0 103 -47 159 -135 159 -60 0 -70 8 -79 65 -4 22 -11 67 -17 100 -6 33
-13 101 -15 150 -4 60 -12 103 -25 131 -12 25 -19 61 -19 97 0 32 -7 74 -15
94 -8 19 -15 48 -15 63 0 31 -35 87 -88 143 -32 32 -84 68 -251 168 -25 15
-45 21 -121 34 -19 4 -54 15 -77 26 -53 23 -69 23 -113 -1z m-126 -446 c56
-22 69 -33 93 -72 15 -26 31 -55 35 -64 12 -29 25 -21 68 42 66 97 152 116
267 61 51 -25 67 -40 105 -98 49 -75 64 -135 60 -253 -2 -52 -9 -79 -37 -135
-19 -38 -35 -73 -35 -77 0 -5 35 -8 79 -8 52 0 82 -4 89 -13 6 -7 38 -26 72
-42 38 -18 60 -35 60 -46 0 -9 7 -22 15 -29 8 -7 15 -19 15 -27 0 -9 8 -37 17
-64 17 -46 16 -49 -2 -69 -18 -20 -18 -21 0 -34 18 -13 18 -15 1 -59 -9 -26
-16 -54 -15 -64 2 -10 -3 -33 -11 -50 -12 -27 -19 -32 -40 -28 -24 4 -70 47
-70 65 0 5 19 25 43 45 37 32 40 37 25 46 -10 6 -18 18 -18 28 0 10 -12 24
-26 31 -23 13 -27 12 -42 -7 -10 -13 -31 -23 -52 -25 -33 -3 -35 -6 -38 -41
-2 -21 -9 -40 -16 -43 -7 -3 -11 -16 -8 -33 3 -21 -4 -36 -30 -63 -34 -36
-102 -88 -113 -88 -4 0 -21 -7 -38 -15 -81 -37 -150 -57 -239 -70 -174 -24
-346 16 -514 120 -65 41 -75 51 -105 113 -18 37 -36 74 -40 82 -5 8 -18 34
-29 56 -27 56 -60 68 -60 22 0 -10 7 -21 15 -24 8 -4 15 -12 15 -20 0 -8 7
-14 15 -14 11 0 15 -11 15 -40 0 -51 26 -102 83 -166 34 -38 72 -62 163 -108
66 -33 128 -63 139 -67 58 -22 169 -42 235 -42 70 0 73 0 38 -11 -20 -6 -40
-14 -44 -18 -10 -11 -55 -10 -133 2 -196 32 -281 70 -398 183 -45 44 -85 87
-88 98 -6 19 -16 23 -78 34 -23 4 -40 13 -43 23 -3 9 -10 26 -15 37 -5 11 -8
47 -6 81 3 39 -1 67 -9 78 -13 18 -11 53 7 137 10 46 41 82 127 152 36 29 88
35 148 18 49 -14 59 0 31 43 -21 29 -26 54 -32 132 -11 137 17 228 98 317 42
47 65 63 117 82 36 13 66 24 67 24 2 1 32 -11 67 -25z m283 -1380 c-3 -3 -12
-4 -19 -1 -8 3 -5 6 6 6 11 1 17 -2 13 -5z"/>
<path d="M756 1637 c-48 -27 -75 -89 -68 -159 4 -44 7 -50 50 -76 47 -28 82
-31 82 -7 0 7 9 15 19 18 23 6 61 79 61 118 0 44 -28 97 -60 114 -37 19 -37
19 -84 -8z"/>
<path d="M1124 1633 c-35 -17 -64 -68 -64 -112 0 -41 26 -96 56 -120 25 -20
26 -23 13 -53 -7 -18 -21 -39 -31 -46 -54 -39 -114 -97 -118 -115 -6 -23 -30
-36 -30 -17 0 23 -65 112 -92 126 -15 8 -41 14 -58 14 -27 0 -30 -3 -30 -29 0
-28 12 -44 35 -46 28 -3 75 -29 75 -41 0 -7 18 -23 39 -34 22 -10 41 -25 43
-32 6 -17 89 25 138 69 19 17 44 33 55 35 17 2 20 -3 20 -29 0 -18 3 -33 8
-33 16 0 62 28 81 49 17 19 18 24 6 49 -8 15 -27 42 -44 59 l-30 33 37 34 c34
31 37 38 37 87 -1 71 -25 118 -75 145 -37 20 -42 21 -71 7z"/>
<path d="M960 1460 c0 -5 5 -10 10 -10 6 0 10 5 10 10 0 6 -4 10 -10 10 -5 0
-10 -4 -10 -10z"/>
<path d="M953 1420 c-17 -27 -70 -52 -93 -45 -28 9 -25 -1 13 -40 17 -19 40
-43 50 -54 25 -31 53 -26 99 18 l42 39 -30 25 c-16 15 -35 27 -41 27 -7 0 -13
11 -13 25 0 30 -11 32 -27 5z m31 -39 c6 -10 -10 -25 -37 -34 -17 -6 -17 -6 0
18 19 26 29 30 37 16z"/>
<path d="M731 1335 c-34 -29 -41 -70 -18 -114 24 -47 37 -37 37 29 0 34 5 70
11 82 16 30 5 32 -30 3z"/>
<path d="M245 980 c-4 -6 5 -10 20 -10 15 0 24 4 20 10 -3 6 -12 10 -20 10 -8
0 -17 -4 -20 -10z"/>
<path d="M1500 980 c0 -5 4 -10 9 -10 6 0 13 5 16 10 3 6 -1 10 -9 10 -9 0
-16 -4 -16 -10z"/>
<path d="M1675 880 c-3 -5 1 -10 9 -10 8 0 18 5 21 10 3 6 -1 10 -9 10 -8 0
-18 -4 -21 -10z"/>
<path d="M1930 2030 l0 -30 79 0 80 0 -15 -37 c-28 -65 6 -142 80 -180 48 -25
160 -22 214 6 73 37 91 121 41 185 l-20 26 20 0 c17 0 21 6 21 30 l0 30 -250
0 -250 0 0 -30z m439 -59 c21 -29 27 -74 15 -106 -11 -28 -60 -45 -129 -45
-103 0 -145 30 -145 105 0 71 7 75 130 75 109 0 109 0 129 -29z"/>
<path d="M1930 1660 l0 -30 250 0 250 0 0 30 0 30 -250 0 -250 0 0 -30z"/>
<path d="M2075 1580 c-8 -14 5 -61 26 -92 25 -34 24 -38 -6 -38 -21 0 -25 -5
-25 -30 l0 -30 180 0 180 0 0 30 0 30 -134 0 -134 0 -16 34 c-9 19 -16 50 -16
70 0 32 -3 36 -24 36 -14 0 -27 -4 -31 -10z"/>
<path d="M2183 1319 c-86 -20 -136 -105 -113 -191 29 -105 171 -148 292 -87
97 49 96 210 -2 260 -44 23 -123 31 -177 18z m157 -64 c35 -18 50 -43 50 -85
0 -68 -45 -100 -140 -100 -95 0 -140 32 -140 100 0 41 14 66 48 84 36 20 145
20 182 1z"/>
<path d="M2070 946 c0 -27 -10 -23 183 -63 86 -17 104 -27 70 -37 -10 -3 -71
-21 -135 -41 -104 -32 -118 -40 -118 -59 0 -19 14 -26 128 -60 71 -21 134 -41
140 -45 7 -4 -51 -22 -128 -40 -132 -31 -140 -34 -140 -57 0 -13 3 -24 8 -24
4 0 85 19 180 42 167 41 172 43 172 68 0 24 -8 28 -127 64 -71 21 -134 42
-142 46 -12 6 228 90 258 90 6 0 11 13 11 28 0 27 -1 28 -172 70 -95 23 -176
42 -180 42 -5 0 -8 -11 -8 -24z"/>
</g>
</svg>
